<?xml version="1.0" encoding="utf-8"?>
<!-- Generator: Adobe Illustrator 24.0.3, SVG Export Plug-In . SVG Version: 6.00 Build 0)  -->
<svg version="1.1" id="Layer_1" xmlns="http://www.w3.org/2000/svg" xmlns:xlink="http://www.w3.org/1999/xlink" x="0px" y="0px"
	 viewBox="0 0 180 180" style="enable-background:new 0 0 180 180;" xml:space="preserve">
<style type="text/css">
	.st0{fill:#44B2CC;}
</style>
<path class="st0" d="M64.3,169.9c-0.7,0-1.5-0.2-2.2-0.5c-2.1-1-3.1-3.4-2.5-5.6l16.9-61.5H44.2c-1.8,0-3.5-1-4.3-2.7
	c-0.8-1.6-0.6-3.6,0.5-5.1l57.8-77.3c1.3-1.8,3.7-2.4,5.8-1.6c2,0.9,3.2,3,2.9,5.2l-8.6,52.3h32.9c1.8,0,3.5,1,4.3,2.7
	c0.8,1.7,0.6,3.6-0.5,5.1L68.1,168C67.2,169.2,65.7,169.9,64.3,169.9z M53.9,92.6h29c1.5,0,2.9,0.7,3.8,1.9c0.9,1.2,1.2,2.8,0.8,4.2
	l-12.1,43.9l45.9-59.6H92.5c-1.4,0-2.8-0.6-3.7-1.7c-0.9-1.1-1.3-2.5-1.1-3.9l6.3-38.5L53.9,92.6z"/>
</svg>
