<?xml version="1.0" encoding="utf-8"?>
<!-- Generator: Adobe Illustrator 24.0.3, SVG Export Plug-In . SVG Version: 6.00 Build 0)  -->
<svg version="1.1" id="Layer_1" xmlns="http://www.w3.org/2000/svg" xmlns:xlink="http://www.w3.org/1999/xlink" x="0px" y="0px"
	 viewBox="0 0 510.2 510.2" style="enable-background:new 0 0 510.2 510.2;" xml:space="preserve">
<style type="text/css">
	.st0{fill:#3A3AC9;}
</style>
<g>
	<path class="st0" d="M346.8,75.5H330V49.3c0-18.6-15.1-33.7-33.7-33.7h-82.3c-18.6,0-33.7,15.1-33.7,33.7v26.2h-16.8
		c-23.7,0-43,19.3-43,43v333.1c0,23.7,19.3,43,43,43h183.4c23.7,0,43-19.3,43-43V118.5C389.9,94.8,370.5,75.5,346.8,75.5z
		 M210.2,49.3c0-2.1,1.7-3.7,3.7-3.7h82.3c2.1,0,3.7,1.7,3.7,3.7v26.2h-89.8V49.3z M359.9,451.6c0,7.2-5.9,13.1-13.1,13.1H163.4
		c-7.2,0-13.1-5.9-13.1-13.1V118.5c0-7.2,5.9-13.1,13.1-13.1h31.8H315h31.8c7.2,0,13.1,5.9,13.1,13.1V451.6z"/>
	<path class="st0" d="M315,412.3H195.2c-8.3,0-15,6.7-15,15c0,8.3,6.7,15,15,15H315c8.3,0,15-6.7,15-15
		C330,419,323.3,412.3,315,412.3z"/>
	<path class="st0" d="M315,352.4H195.2c-8.3,0-15,6.7-15,15c0,8.3,6.7,15,15,15H315c8.3,0,15-6.7,15-15
		C330,359.1,323.3,352.4,315,352.4z"/>
	<path class="st0" d="M315,292.5H195.2c-8.3,0-15,6.7-15,15c0,8.3,6.7,15,15,15H315c8.3,0,15-6.7,15-15
		C330,299.2,323.3,292.5,315,292.5z"/>
</g>
</svg>
