<?xml version="1.0" encoding="utf-8"?>
<!-- Generator: Adobe Illustrator 24.0.3, SVG Export Plug-In . SVG Version: 6.00 Build 0)  -->
<svg version="1.1" id="Capa_1" xmlns="http://www.w3.org/2000/svg" xmlns:xlink="http://www.w3.org/1999/xlink" x="0px" y="0px"
	 viewBox="0 0 510.2 510.2" style="enable-background:new 0 0 510.2 510.2;" xml:space="preserve">
<style type="text/css">
	.st0{fill:#72DDBF;}
</style>
<g>
	<path class="st0" d="M428.3,85.9H318V34.4c0-7.6-6.2-13.8-13.8-13.8H206c-7.6,0-13.8,6.2-13.8,13.8v51.5H81.9
		c-7.6,0-13.8,6.2-13.8,13.8v55.5c0,7.6,6.2,13.8,13.8,13.8h2.5l20.5,307.7c0.5,7.2,6.5,12.9,13.8,12.9h273
		c7.3,0,13.3-5.6,13.8-12.9L425.9,169h2.5c7.6,0,13.8-6.2,13.8-13.8V99.7C442.1,92.1,435.9,85.9,428.3,85.9L428.3,85.9z M219.8,48.2
		h70.6v37.8h-70.6L219.8,48.2z M95.7,113.5h318.9v27.9H95.7V113.5z M378.7,462H131.5L112,169h286.2L378.7,462z"/>
	<path class="st0" d="M207.5,262.7c11-11,25.7-17.1,41.3-17.1s30.3,6.1,41.3,17.1c7.3,7.3,12.5,16.3,15.1,26
		c-5.4-4-13.1-3.6-17.9,1.3c-5.4,5.4-5.4,14.1,0,19.5l24,24c2.6,2.6,6.1,4,9.7,4s7.2-1.5,9.7-4l24-24c5.4-5.4,5.4-14.1,0-19.5
		c-5.4-5.4-14.1-5.4-19.5,0l-1.4,1.4c-2.7-18.2-11-35-24.3-48.2C293.4,227,271.8,218,248.9,218s-44.6,8.9-60.8,25.2
		c-5.4,5.4-5.4,14.1,0,19.5C193.4,268.1,202.2,268.1,207.5,262.7L207.5,262.7z"/>
	<path class="st0" d="M174.9,341l1.4-1.4c2.7,18.2,11,35,24.3,48.2c16.2,16.2,37.8,25.2,60.8,25.2c23,0,44.6-8.9,60.8-25.2
		c5.4-5.4,5.4-14.1,0-19.5c-5.4-5.4-14.1-5.4-19.5,0c-11,11-25.7,17.1-41.3,17.1c-15.6,0-30.3-6.1-41.3-17.1
		c-7.3-7.3-12.5-16.3-15.1-26c2.4,1.8,5.3,2.7,8.2,2.7c3.5,0,7.1-1.3,9.7-4c5.4-5.4,5.4-14.1,0-19.5l-24-24
		c-5.4-5.4-14.1-5.4-19.5,0l-24,24c-5.4,5.4-5.4,14.1,0,19.5C160.8,346.4,169.5,346.4,174.9,341z"/>
</g>
</svg>
