<?xml version="1.0" encoding="utf-8"?>
<!-- Generator: Adobe Illustrator 24.0.3, SVG Export Plug-In . SVG Version: 6.00 Build 0)  -->
<svg version="1.1" id="Layer_1" xmlns="http://www.w3.org/2000/svg" xmlns:xlink="http://www.w3.org/1999/xlink" x="0px" y="0px"
	 viewBox="0 0 34.8 29.5" style="enable-background:new 0 0 34.8 29.5;" xml:space="preserve">
<style type="text/css">
	.st0{fill:#72DDBF;}
</style>
<g id="Group_471" transform="translate(-36 -30)">
	<path id="Rectangle_437" class="st0" d="M40.4,32.7h26c1.1,0,2,0.9,2,2l0,0c0,1.1-0.9,2-2,2h-26c-1.1,0-2-0.9-2-2l0,0
		C38.4,33.6,39.3,32.7,40.4,32.7z"/>
	<path id="Rectangle_438" class="st0" d="M40.4,42.7h26c1.1,0,2,0.9,2,2l0,0c0,1.1-0.9,2-2,2h-26c-1.1,0-2-0.9-2-2l0,0
		C38.4,43.6,39.3,42.7,40.4,42.7z"/>
	<path id="Rectangle_439" class="st0" d="M40.4,52.7h26c1.1,0,2,0.9,2,2l0,0c0,1.1-0.9,2-2,2h-26c-1.1,0-2-0.9-2-2l0,0
		C38.4,53.6,39.3,52.7,40.4,52.7z"/>
</g>
</svg>
