<?xml version="1.0" encoding="utf-8"?>
<!-- Generator: Adobe Illustrator 24.0.3, SVG Export Plug-In . SVG Version: 6.00 Build 0)  -->
<svg version="1.1" id="Capa_1" xmlns="http://www.w3.org/2000/svg" xmlns:xlink="http://www.w3.org/1999/xlink" x="0px" y="0px"
	 viewBox="0 0 510.2 510.2" style="enable-background:new 0 0 510.2 510.2;" xml:space="preserve">
<style type="text/css">
	.st0{fill:#444444;}
</style>
<g>
	<path class="st0" d="M427.4,86.8H317.6V35.5c0-7.6-6.1-13.7-13.7-13.7h-97.7c-7.6,0-13.7,6.1-13.7,13.7v51.3H82.8
		c-7.6,0-13.7,6.1-13.7,13.7v55.2c0,7.6,6.1,13.7,13.7,13.7h2.5l20.4,306.3c0.5,7.2,6.5,12.8,13.7,12.8h271.6
		c7.2,0,13.2-5.6,13.7-12.8L425,169.5h2.5c7.6,0,13.7-6.1,13.7-13.7v-55.2C441.1,92.9,435,86.8,427.4,86.8L427.4,86.8z M220,49.3
		h70.3v37.5H220V49.3z M96.5,114.2h317.2V142H96.5V114.2z M378.1,461H132.1l-19.3-291.5h284.8L378.1,461z"/>
	<g>
		<path class="st0" d="M266.4,362.9h-22.5c-1.8,0-3.3-1.7-3.3-3.7V201.9c0-2.1,1.5-3.7,3.3-3.7h22.5c1.8,0,3.3,1.7,3.3,3.7v157.2
			C269.7,361.3,268.2,362.9,266.4,362.9z"/>
	</g>
	<circle class="st0" cx="255.1" cy="403.9" r="18.8"/>
</g>
</svg>
