<?xml version="1.0" encoding="utf-8"?>
<!-- Generator: Adobe Illustrator 24.0.3, SVG Export Plug-In . SVG Version: 6.00 Build 0)  -->
<svg version="1.1" id="Layer_1" xmlns="http://www.w3.org/2000/svg" xmlns:xlink="http://www.w3.org/1999/xlink" x="0px" y="0px"
	 viewBox="0 0 90 50" style="enable-background:new 0 0 90 50;" xml:space="preserve">
<style type="text/css">
	.st0{fill:#72DDBF;}
	.st1{fill:#3A3AC9;}
</style>
<g>
	<path class="st0" d="M3.3,24.8v-3L11,10.2H4.1V6.1h13v3L9.4,20.7h7.7v4.2H3.3z"/>
	<path class="st0" d="M25.8,25.2c-0.9,0-1.8-0.2-2.7-0.5c-0.9-0.3-1.6-0.8-2.3-1.5c-0.7-0.6-1.2-1.4-1.6-2.4s-0.6-2-0.6-3.2
		c0-1.2,0.2-2.3,0.6-3.2c0.4-0.9,0.9-1.7,1.6-2.4c0.7-0.6,1.4-1.1,2.3-1.5c0.9-0.3,1.8-0.5,2.7-0.5c0.9,0,1.8,0.2,2.7,0.5
		c0.9,0.3,1.6,0.8,2.3,1.5s1.2,1.4,1.6,2.4c0.4,0.9,0.6,2,0.6,3.2c0,1.2-0.2,2.3-0.6,3.2s-0.9,1.7-1.6,2.4c-0.7,0.6-1.4,1.1-2.3,1.5
		C27.6,25,26.7,25.2,25.8,25.2z M22.5,8.6c-0.7,0-1.2-0.2-1.7-0.7c-0.4-0.4-0.6-1-0.6-1.6s0.2-1.2,0.6-1.6c0.4-0.4,1-0.7,1.7-0.7
		c0.7,0,1.2,0.2,1.7,0.7c0.4,0.4,0.6,1,0.6,1.6S24.6,7.5,24.2,8C23.7,8.4,23.2,8.6,22.5,8.6z M25.8,21.2c0.7,0,1.3-0.3,1.6-1
		c0.3-0.6,0.5-1.5,0.5-2.6s-0.2-2-0.5-2.6c-0.3-0.6-0.9-1-1.6-1s-1.3,0.3-1.6,1c-0.3,0.6-0.5,1.5-0.5,2.6s0.2,2,0.5,2.6
		C24.5,20.9,25.1,21.2,25.8,21.2z M29.1,8.6c-0.7,0-1.2-0.2-1.7-0.7c-0.4-0.4-0.6-1-0.6-1.6s0.2-1.2,0.6-1.6c0.4-0.4,1-0.7,1.7-0.7
		c0.7,0,1.2,0.2,1.7,0.7c0.4,0.4,0.6,1,0.6,1.6S31.2,7.5,30.7,8C30.3,8.4,29.8,8.6,29.1,8.6z"/>
	<path class="st0" d="M40,25.2c-0.8,0-1.6-0.1-2.1-0.4c-0.6-0.3-1-0.6-1.4-1.1c-0.3-0.5-0.6-1.1-0.7-1.7c-0.1-0.7-0.2-1.4-0.2-2.2
		v-15h5v15.2c0,0.5,0.1,0.8,0.3,1c0.2,0.2,0.4,0.3,0.5,0.3c0.1,0,0.2,0,0.2,0c0.1,0,0.2,0,0.3-0.1l0.6,3.6c-0.3,0.1-0.6,0.2-1,0.3
		C41,25.1,40.5,25.2,40,25.2z"/>
	<path class="st0" d="M49.4,25.2c-0.9,0-1.7-0.2-2.4-0.5c-0.7-0.3-1.3-0.8-1.8-1.5c-0.5-0.7-0.9-1.4-1.2-2.4c-0.3-0.9-0.4-2-0.4-3.2
		c0-1.2,0.2-2.2,0.5-3.2c0.3-0.9,0.8-1.7,1.3-2.4s1.2-1.1,1.9-1.5c0.7-0.3,1.4-0.5,2.2-0.5c0.8,0,1.4,0.1,1.9,0.4
		c0.5,0.3,1,0.6,1.4,1.1l-0.2-2.1V4.7h5v20.1h-4l-0.3-1.3H53c-0.5,0.5-1.1,0.9-1.7,1.2C50.7,25,50,25.2,49.4,25.2z M50.7,21.1
		c0.4,0,0.7-0.1,1-0.2s0.6-0.4,0.8-0.8v-5.3c-0.3-0.3-0.6-0.5-1-0.5s-0.7-0.1-1-0.1c-0.5,0-1,0.3-1.4,0.8c-0.4,0.5-0.6,1.4-0.6,2.7
		c0,1.3,0.2,2.2,0.6,2.8C49.5,20.9,50,21.1,50.7,21.1z"/>
	<path class="st1" d="M3.3,45.6V27.2h6.8c1,0,2,0.1,2.9,0.3c0.9,0.2,1.7,0.5,2.4,1c0.7,0.5,1.2,1.1,1.6,1.9c0.4,0.8,0.6,1.8,0.6,2.9
		c0,1.1-0.2,2.1-0.6,2.9c-0.4,0.8-0.9,1.5-1.6,2c-0.7,0.5-1.5,0.9-2.4,1.2c-0.9,0.3-1.8,0.4-2.8,0.4h-2v5.8H3.3z M8.2,35.9h1.8
		c1,0,1.7-0.2,2.1-0.7c0.5-0.5,0.7-1.1,0.7-1.9s-0.3-1.4-0.8-1.8c-0.5-0.3-1.2-0.5-2.2-0.5H8.2V35.9z"/>
	<path class="st1" d="M25.9,46c-0.9,0-1.8-0.2-2.6-0.5c-0.9-0.3-1.6-0.8-2.3-1.4c-0.7-0.6-1.2-1.4-1.6-2.3c-0.4-0.9-0.6-2-0.6-3.1
		c0-1.2,0.2-2.2,0.6-3.1c0.4-0.9,0.9-1.7,1.6-2.3s1.4-1.1,2.3-1.4c0.9-0.3,1.7-0.5,2.6-0.5c0.9,0,1.8,0.2,2.6,0.5
		c0.8,0.3,1.6,0.8,2.2,1.4s1.2,1.4,1.6,2.3c0.4,0.9,0.6,2,0.6,3.1c0,1.2-0.2,2.2-0.6,3.1c-0.4,0.9-0.9,1.7-1.6,2.3
		c-0.7,0.6-1.4,1.1-2.2,1.4C27.7,45.8,26.8,46,25.9,46z M25.9,42.1c0.7,0,1.3-0.3,1.6-0.9c0.3-0.6,0.5-1.5,0.5-2.6
		c0-1.1-0.2-1.9-0.5-2.6c-0.3-0.6-0.8-0.9-1.6-0.9s-1.3,0.3-1.6,0.9c-0.3,0.6-0.5,1.5-0.5,2.6c0,1.1,0.2,1.9,0.5,2.6
		C24.6,41.7,25.2,42.1,25.9,42.1z"/>
	<path class="st1" d="M35.5,45.6V31.5h4l0.3,1.7h0.1c0.6-0.5,1.2-1,1.9-1.4c0.7-0.4,1.6-0.6,2.5-0.6c1.6,0,2.7,0.5,3.4,1.6
		c0.7,1,1,2.5,1,4.2v8.7h-4.9v-8.1c0-0.9-0.1-1.5-0.3-1.8c-0.2-0.3-0.6-0.5-1.1-0.5c-0.5,0-0.8,0.1-1.1,0.3c-0.3,0.2-0.6,0.5-1,0.8
		v9.3H35.5z"/>
	<path class="st1" d="M57.8,46c-0.9,0-1.7-0.1-2.4-0.4c-0.7-0.3-1.2-0.7-1.6-1.2c-0.4-0.5-0.7-1.1-0.9-1.8c-0.2-0.7-0.3-1.5-0.3-2.4
		v-4.9h-1.9v-3.6l2.2-0.2l0.6-3.7h4v3.7h3.2v3.8h-3.2v4.9c0,0.8,0.2,1.3,0.5,1.6c0.3,0.3,0.7,0.4,1.2,0.4c0.2,0,0.4,0,0.7-0.1
		c0.2,0,0.4-0.1,0.6-0.2l0.7,3.5c-0.4,0.1-0.8,0.2-1.4,0.3C59.3,45.9,58.6,46,57.8,46z"/>
	<path class="st0" d="M75.7,46c-0.8,0-1.5-0.3-2.1-0.9c-0.5-0.6-0.8-1.3-0.8-2.1s0.3-1.6,0.8-2.1c0.5-0.6,1.2-0.9,2.1-0.9
		s1.5,0.3,2.1,0.9c0.5,0.6,0.8,1.3,0.8,2.1s-0.3,1.6-0.8,2.1C77.3,45.7,76.6,46,75.7,46z"/>
	<path id="_x37__3_" class="st0" d="M75.7,4c-6.2,0-11.3,5.1-11.3,11.3c0,3,1.8,7.4,5.5,13.2c2.7,4.3,5.4,7.7,5.4,7.8
		c0.1,0.1,0.2,0.2,0.4,0.2c0,0,0,0,0,0c0.2,0,0.3-0.1,0.4-0.2c0,0,2.7-3.5,5.4-7.8c3.6-5.8,5.5-10.2,5.5-13.1C87,9.1,81.9,4,75.7,4z
		 M75.7,20.7c-3,0-5.4-2.4-5.4-5.4s2.4-5.4,5.4-5.4s5.4,2.4,5.4,5.4S78.7,20.7,75.7,20.7z"/>
</g>
</svg>
