<?xml version="1.0" encoding="utf-8"?>
<!-- Generator: Adobe Illustrator 24.0.3, SVG Export Plug-In . SVG Version: 6.00 Build 0)  -->
<svg version="1.1" id="Layer_1" xmlns="http://www.w3.org/2000/svg" xmlns:xlink="http://www.w3.org/1999/xlink" x="0px" y="0px"
	 viewBox="0 0 180 180" style="enable-background:new 0 0 180 180;" xml:space="preserve">
<style type="text/css">
	.st0{fill:#FF6D33;}
</style>
<g>
	<path class="st0" d="M90.2,173.3c-3.4,0-6.1-1.1-8.2-3.4c-2.1-2.3-3.2-5.1-3.2-8.5c0-3.4,1.1-6.2,3.2-8.5c2.1-2.3,4.9-3.4,8.2-3.4
		c3.4,0,6.1,1.1,8.2,3.4c2.1,2.3,3.2,5.1,3.2,8.5c0,3.4-1.1,6.2-3.2,8.5C96.3,172.1,93.6,173.3,90.2,173.3z"/>
	<path id="_x37__5_" class="st0" d="M90.2,7C65.6,7,45.6,27,45.6,51.6c0,11.7,7.3,29.2,21.6,52.1c10.6,16.9,21.3,30.6,21.4,30.8
		c0.4,0.5,0.9,0.7,1.5,0.7c0,0,0,0,0,0c0.6,0,1.2-0.3,1.5-0.8c0.1-0.1,10.8-14,21.4-31c14.3-23,21.6-40.4,21.6-51.9
		C134.8,27,114.8,7,90.2,7z M90.2,73.1c-11.9,0-21.5-9.6-21.5-21.5s9.6-21.5,21.5-21.5s21.5,9.6,21.5,21.5S102.1,73.1,90.2,73.1z"/>
</g>
</svg>
