<?xml version="1.0" encoding="utf-8"?>
<!-- Generator: Adobe Illustrator 24.0.3, SVG Export Plug-In . SVG Version: 6.00 Build 0)  -->
<svg version="1.1" id="Layer_1" xmlns="http://www.w3.org/2000/svg" xmlns:xlink="http://www.w3.org/1999/xlink" x="0px" y="0px"
	 viewBox="0 0 180 180" style="enable-background:new 0 0 180 180;" xml:space="preserve">
<style type="text/css">
	.st0{fill:#FF064D;}
</style>
<path class="st0" d="M155.3,27c-8-9-19.3-14.1-31.1-14.1S101.1,18,93.1,27l-2.7,3l-2.7-3c-16-17.9-42.8-18.9-60-2.3
	c-0.8,0.8-1.5,1.5-2.2,2.3c-16.9,19-16.9,48.4,0,67.5l57.4,63H48.1c-3.1,0-5.6,2.6-5.6,5.8s2.5,5.8,5.6,5.8h83.8
	c3.1,0,5.6-2.6,5.6-5.8s-2.5-5.8-5.6-5.8H98l57.3-63C172.2,75.5,172.2,46.1,155.3,27z M90.3,149L33.4,86.5
	c-12.9-14.5-12.9-37,0-51.5C45.2,21.7,65,20.9,77.8,33.1c0.6,0.6,1.2,1.2,1.8,1.9l6.8,7.4c2.2,2.3,5.8,2.3,8,0l6.8-7.4
	c11.8-13.3,31.6-14.1,44.3-1.9c0.6,0.6,1.2,1.2,1.8,1.9c13.1,14.6,13.2,37.1,0,51.5L90.3,149z"/>
</svg>
