<?xml version="1.0" encoding="utf-8"?>
<!-- Generator: Adobe Illustrator 24.0.3, SVG Export Plug-In . SVG Version: 6.00 Build 0)  -->
<svg version="1.1" id="Layer_1" xmlns="http://www.w3.org/2000/svg" xmlns:xlink="http://www.w3.org/1999/xlink" x="0px" y="0px"
	 viewBox="0 0 180 180" style="enable-background:new 0 0 180 180;" xml:space="preserve">
<style type="text/css">
	.st0{fill:#88BA6A;}
</style>
<path class="st0" d="M140.5,34l-4.6,0c0.5-1.2,1-2.4,1.4-3.6c1.5-5.7,1.4-10.8,1.4-10.8l0.1-7.4c0-1.7-1.4-3.1-3.2-3.1L129.3,9
	c-7.2-0.1-14.3,2.2-20,6.5c0,0-3.7,2.6-5.8,5.7c-2,2.5-3.6,5.4-4.7,8.4c-3.4-2.3-7.3-3.9-11.4-4.7l0.1-10c0-1.7-1.4-3.1-3.2-3.1
	l-3.2,0c-3.9-0.1-6.4,0.2-6.4,0.2c-0.6,0.1-1.1,0.2-1.6,0.3c-3,0.4-5.9,2.5-5.9,2.5c-1.8,1.2-3.4,2.6-4.8,4.3c0,0-2.4,2.5-3.1,6
	c-0.5,1.7-0.8,3.4-0.8,5.1l0,1.8c0,0-0.1,4.4,0.4,6.7c0,0-1.4-1-4.3-1.7c-1.9-0.4-3.5-1-5.6-1l-2.4-0.1l-0.8,0
	c-4.3,0-7.7,0.5-7.7,0.5c-1.2,0.5-2.1,1.6-2.1,2.9L36,45.4c-0.1,7.1,3.7,14.5,9.1,19.3h-1.5c-2.1,0-3.8,1.6-3.8,3.6V83
	c0,2,1.7,3.6,3.8,3.6h0.7l5.6,81.4c0.1,1.9,1.8,3.4,3.7,3.4H128c2,0,3.6-1.5,3.7-3.4l5.6-81.4h0.7c2.1,0,3.8-1.6,3.8-3.6V68.3
	c0-2-1.7-3.6-3.8-3.6h-1.6c5.3-4.6,8.4-11.3,8.5-18.2l0.1-8C145,38.3,145,34,140.5,34z M129.2,15.2l3.2,0l-0.1,6.2
	c0,4.5-1.3,8.9-3.7,12.6c-7.2,0.9-13.6,4.7-17.7,10.5c-0.2-0.5-0.4-1.1-0.6-1.6l14.8-15.4c1.2-1.2,1.2-3.2-0.2-4.4
	c-1.3-1.2-3.3-1.1-4.5,0.2L107,37.4c-0.9-1.2-1.8-2.3-2.9-3.4C107,22.8,117.4,15.1,129.2,15.2z M84.2,30.5
	c12.8,1.7,22.3,12.4,22.2,24.9l0,2.5l-8.5-12.1c-1-1.4-3-1.8-4.4-0.8c-1.5,1-1.9,2.9-0.9,4.3l10.2,14.6c-11.1-3.1-18.7-13-18.7-24.2
	L84.2,30.5z M83.9,61.5l0,2.9l-9.6,0l0-2.9c0-3.2-0.6-6.4-1.8-9.3l1.9,0C79.7,52.1,83.9,56.3,83.9,61.5z M65,30.2
	c0-6.9,5.8-12.4,12.9-12.3l3.2,0L81,24.1c-1.8,0-3.2,1.4-3.2,3.1l-0.1,12.4c0,2.3,0.2,4.5,0.7,6.7c-1.3-0.3-2.6-0.5-4-0.5l-5.6-0.1
	c-0.2-0.3-0.5-0.6-0.8-0.9l0.1-0.2l5-7.5c1-1.4,0.6-3.4-0.9-4.3c-1.5-0.9-3.5-0.5-4.4,0.9l-2.9,4.3L65,30.2z M42.4,45.5l0-3.1
	l6.4,0.1c10.3,0.1,18.7,8.1,19.1,18.1l-10.6-9.4C56,50,54,50.1,52.8,51.4c-1.2,1.3-1.1,3.2,0.2,4.4l9.6,8.5l-1.2,0
	C50.7,64.2,42.3,55.8,42.4,45.5z M124.5,164.1H57.1l-5.3-77.5h78L124.5,164.1z M134.2,79.4H47.4V72h86.9V79.4z M138.5,46.4
	c-0.1,9.8-7.9,17.7-17.8,18.3h-3.3l10.5-10c1.3-1.2,1.3-3.2,0-4.4c-1.2-1.2-3.3-1.2-4.5,0l-10.6,10.2l0-1.8
	c0.1-10.3,8.8-18.6,19.4-18.5l6.4,0.1L138.5,46.4z"/>
</svg>
